# xmcd CD database file
#
# Track frame offsets:
#	150
#	23877
#	50617
#	71967
#	91257
#	119492
#	144792
#
# Disc length: 2342 seconds
#
# Revision: 0
# Processed by: cddbd v1.5.2PL0 Copyright (c) Steve Scherf et al.
# Submitted via: CDex 1.70beta2
#
DISCID=5f092407
DTITLE=Sonny Stitt - The Last Stitt Sessions Vol.2
DYEAR=1982
DGENRE=Jazz
TTITLE0=At Last
TTITLE1=Bouncin' With Bud
TTITLE2=As Time Goes By
TTITLE3=Swifty
TTITLE4=Sugar
TTITLE5=The Jumpin' Blues
TTITLE6=Bye Bye Blackbird
EXTD=YEAR: 1982
EXTT0=
EXTT1=
EXTT2=
EXTT3=
EXTT4=
EXTT5=
EXTT6=
PLAYORDER=
